<svg xmlns="http://www.w3.org/2000/svg" viewBox="0 0 64 64" role="img" aria-label="Adupangarai logo">
  <defs>
    <linearGradient id="tile" x1="0" y1="0" x2="1" y2="1">
      <stop offset="0" stop-color="#138a8f"/>
      <stop offset="1" stop-color="#0a4d52"/>
    </linearGradient>
    <linearGradient id="pot" x1="0" y1="0" x2="0" y2="1">
      <stop offset="0" stop-color="#f7c948"/>
      <stop offset="1" stop-color="#de930a"/>
    </linearGradient>
  </defs>
  <rect width="64" height="64" rx="16" fill="url(#tile)"/>
  <!-- steam -->
  <g fill="none" stroke="#fdf6e3" stroke-width="2.4" stroke-linecap="round">
    <path d="M26 17.5c-2.2-2.6 2.2-4.4 0-7.5"/>
    <path d="M32 15.5c-2.2-2.6 2.2-4.4 0-7.5"/>
    <path d="M38 17.5c-2.2-2.6 2.2-4.4 0-7.5"/>
  </g>
  <!-- paanai: rim, neck and round belly -->
  <path d="M23 25C13 28.5 10.5 38.5 15.5 45.5 19.5 50.8 44.5 50.8 48.5 45.5 53.5 38.5 51 28.5 41 25Z" fill="url(#pot)"/>
  <rect x="20" y="20.5" width="24" height="5.5" rx="2.75" fill="#b86f05"/>
  <!-- kolam band -->
  <path d="M16.2 35.5q3.95-3 7.9 0t7.9 0 7.9 0 7.9 0" fill="none" stroke="#fdf6e3" stroke-width="2" stroke-linecap="round"/>
  <g fill="#fdf6e3">
    <circle cx="20.15" cy="39.6" r="1.35"/>
    <circle cx="28.05" cy="39.6" r="1.35"/>
    <circle cx="35.95" cy="39.6" r="1.35"/>
    <circle cx="43.85" cy="39.6" r="1.35"/>
  </g>
  <!-- stove flames -->
  <g fill="#ff8a4c">
    <path d="M24 59.5c-2.6-1.7-2.6-4.3 0-7 2.6 2.7 2.6 5.3 0 7z"/>
    <path d="M32 60c-3-1.9-3-4.9 0-8 3 3.1 3 6.1 0 8z"/>
    <path d="M40 59.5c-2.6-1.7-2.6-4.3 0-7 2.6 2.7 2.6 5.3 0 7z"/>
  </g>
</svg>
